<?xml version="1.0" standalone="no"?>
<!DOCTYPE svg PUBLIC "-//W3C//DTD SVG 20010904//EN"
 "http://www.w3.org/TR/2001/REC-SVG-20010904/DTD/svg10.dtd">
<svg version="1.0" xmlns="http://www.w3.org/2000/svg"
 width="600.000000pt" height="600.000000pt" viewBox="0 0 600.000000 600.000000"
 preserveAspectRatio="xMidYMid meet">
<metadata>
Created by potrace 1.11, written by Peter Selinger 2001-2013
</metadata>
<g transform="translate(0.000000,600.000000) scale(0.100000,-0.100000)"
fill="#000000" stroke="none">
<path d="M2790 5994 c-19 -2 -82 -9 -140 -15 -210 -22 -473 -84 -684 -160
l-86 -31 0 -996 0 -997 68 74 c127 141 299 270 478 360 279 140 575 203 959
203 547 0 940 -125 1213 -387 122 -116 173 -189 272 -390 163 -330 250 -615
306 -995 15 -97 18 -236 23 -910 l6 -794 84 99 c333 398 552 850 649 1341 48
237 57 338 57 604 0 266 -10 367 -56 602 -214 1074 -1013 1953 -2069 2271
-132 40 -321 81 -477 103 -102 14 -526 27 -603 18z"/>
<path d="M844 5088 c-400 -411 -671 -925 -783 -1486 -46 -235 -56 -336 -56
-602 0 -266 9 -367 57 -604 113 -570 404 -1113 812 -1516 l86 -85 0 2203 c0
1211 -2 2202 -3 2202 -2 0 -53 -51 -113 -112z"/>
<path d="M2888 3455 c-218 -34 -404 -130 -564 -289 -124 -125 -201 -271 -255
-485 -63 -248 -62 -232 -66 -1420 -2 -596 0 -1088 4 -1092 31 -30 428 -123
643 -150 139 -18 561 -18 700 0 245 31 518 98 719 175 l86 33 3 884 c4 1075
-5 1238 -78 1525 -93 362 -264 600 -527 733 -173 87 -437 121 -665 86z"/>
</g>
</svg>
